# xmcd CD database file generated by LOLA_Freedb v0.9beta0
# 
# Track frame offsets:
#      183
#      19955
#      32538
#      44415
#      55780
#      69278
#      81230
#      95990
#      114758
#      126090
#      145445
#      161455
#      176215
#      189833
#      204100
#      221543
# 
# Disc length: 3109 seconds
# 
# Revision: 3 
# Processed by: cddbd v1.5.2PL0 Copyright (c) Steve Scherf et al.
# Submitted via: LOLA_Freedb v0.9beta0
# 
DISCID=da0c2310
DTITLE=Various Artist - Thomas Jeier Präsentiert Den Country Club - Cd 2
DYEAR=1992
DGENRE=Country
TTITLE0=K.T. Oslin - Hey Bobby
TTITLE1=Marc Chesnutt - Your Love Is A Miracle
TTITLE2=Tanya Tucker - Walking Shoes
TTITLE3=Patty Loveless - Timber I'm Falling In Love
TTITLE4=Shenandoah - The Curch On Chumberland Road
TTITLE5=Restless Heart - You Can Depend On Me
TTITLE6=Diamond Rio - Meet In The Middle
TTITLE7=Ronnie Milsap - Strangers In My House
TTITLE8=Highway 101 - Bing Bang Boom
TTITLE9=John Brack - Borderline
TTITLE10=Gudrun Lange and Kaktus - Solang Ich Dich Noch Fühle
TTITLE11=Western Union - Auf Der Autobahn
TTITLE12=Truck Stop - Hillie Billy Country Lillie
TTITLE13=The Kentucky Headhunters - Oh Lonesome Me
TTITLE14=Alabama - Mountain Music
TTITLE15=Johnny Cash - Ring Of Fire
EXTD=YEAR: 1992
EXTT0=
EXTT1=
EXTT2=
EXTT3=
EXTT4=
EXTT5=
EXTT6=
EXTT7=
EXTT8=
EXTT9=
EXTT10=
EXTT11=
EXTT12=
EXTT13=
EXTT14=
EXTT15=
PLAYORDER=
